<svg id="facebook-round-color-icon" xmlns="http://www.w3.org/2000/svg" width="17.668" height="17.668" viewBox="0 0 17.668 17.668">
  <path id="Path_19346" data-name="Path 19346" d="M17.668,8.834A8.834,8.834,0,1,0,6.7,17.408V11.533H4.878v-2.7H6.7V7.671c0-3.007,1.361-4.4,4.313-4.4a9.744,9.744,0,0,1,1.921.22V5.937c-.209-.022-.571-.033-1.021-.033C10.464,5.9,9.9,6.453,9.9,7.879v.955H12.79l-.5,2.7H9.9V17.6A8.835,8.835,0,0,0,17.668,8.834Z" transform="translate(0)" fill="#0866ff"/>
  <path id="Path_19347" data-name="Path 19347" d="M147.956,102.473l.5-2.7h-2.886v-.955c0-1.427.56-1.975,2.008-1.975.45,0,.812.011,1.021.033V94.43a9.745,9.745,0,0,0-1.921-.22c-2.952,0-4.313,1.394-4.313,4.4v1.163H140.54v2.7h1.822v5.874a8.893,8.893,0,0,0,3.2.2v-6.07Z" transform="translate(-135.662 -90.94)" fill="#fff"/>
</svg>
