<svg id="ig-instagram-icon" xmlns="http://www.w3.org/2000/svg" xmlns:xlink="http://www.w3.org/1999/xlink" width="18.15" height="18.145" viewBox="0 0 18.15 18.145">
  <defs>
    <radialGradient id="radial-gradient" cx="0.266" cy="1.077" r="0.991" gradientUnits="objectBoundingBox">
      <stop offset="0" stop-color="#fd5"/>
      <stop offset="0.1" stop-color="#fd5"/>
      <stop offset="0.5" stop-color="#ff543e"/>
      <stop offset="1" stop-color="#c837ab"/>
    </radialGradient>
    <radialGradient id="radial-gradient-2" cx="-0.168" cy="0.072" r="0.443" gradientUnits="objectBoundingBox">
      <stop offset="0" stop-color="#3771c8"/>
      <stop offset="0.128" stop-color="#3771c8"/>
      <stop offset="1" stop-color="#60f" stop-opacity="0"/>
    </radialGradient>
  </defs>
  <path id="Path_19348" data-name="Path 19348" d="M9.074,0c-3.789,0-4.9,0-5.112.022A4.5,4.5,0,0,0,2.174.471a3.623,3.623,0,0,0-1.043.763A3.894,3.894,0,0,0,.08,3.442,16.377,16.377,0,0,0,0,6.12c0,.722,0,1.673,0,2.949,0,3.786,0,4.892.022,5.107a4.558,4.558,0,0,0,.433,1.753A3.823,3.823,0,0,0,2.93,17.953a6.439,6.439,0,0,0,1.318.174c.225.01,2.515.017,4.807.017s4.584,0,4.8-.014a6.2,6.2,0,0,0,1.365-.179A3.8,3.8,0,0,0,17.7,15.924a4.483,4.483,0,0,0,.428-1.719c.012-.156.017-2.649.017-5.138s-.006-4.978-.018-5.134A4.433,4.433,0,0,0,17.692,2.2a3.6,3.6,0,0,0-.777-1.064A3.918,3.918,0,0,0,14.706.083,16.355,16.355,0,0,0,12.028,0Z" transform="translate(0.003 0)" fill="url(#radial-gradient)"/>
  <path id="Path_19349" data-name="Path 19349" d="M9.074,0c-3.789,0-4.9,0-5.112.022A4.5,4.5,0,0,0,2.174.471a3.623,3.623,0,0,0-1.043.763A3.894,3.894,0,0,0,.08,3.442,16.377,16.377,0,0,0,0,6.12c0,.722,0,1.673,0,2.949,0,3.786,0,4.892.022,5.107a4.558,4.558,0,0,0,.433,1.753A3.823,3.823,0,0,0,2.93,17.953a6.439,6.439,0,0,0,1.318.174c.225.01,2.515.017,4.807.017s4.584,0,4.8-.014a6.2,6.2,0,0,0,1.365-.179A3.8,3.8,0,0,0,17.7,15.924a4.483,4.483,0,0,0,.428-1.719c.012-.156.017-2.649.017-5.138s-.006-4.978-.018-5.134A4.433,4.433,0,0,0,17.692,2.2a3.6,3.6,0,0,0-.777-1.064A3.918,3.918,0,0,0,14.706.083,16.355,16.355,0,0,0,12.028,0Z" transform="translate(0.003 0)" fill="url(#radial-gradient-2)"/>
  <path id="Path_19350" data-name="Path 19350" d="M24.7,18c-1.82,0-2.048.008-2.763.04a4.917,4.917,0,0,0-1.626.311,3.427,3.427,0,0,0-1.96,1.959,4.894,4.894,0,0,0-.311,1.626c-.032.715-.04.943-.04,2.763s.008,2.047.04,2.762a4.924,4.924,0,0,0,.311,1.626,3.429,3.429,0,0,0,1.959,1.96,4.921,4.921,0,0,0,1.626.311c.715.033.943.04,2.762.04s2.047-.008,2.762-.04a4.924,4.924,0,0,0,1.627-.311,3.433,3.433,0,0,0,1.959-1.96,4.966,4.966,0,0,0,.311-1.626c.032-.715.04-.942.04-2.762s-.008-2.048-.04-2.763a4.964,4.964,0,0,0-.311-1.626,3.428,3.428,0,0,0-1.96-1.959,4.932,4.932,0,0,0-1.628-.311c-.715-.033-.942-.04-2.762-.04Zm-.6,1.207h.6c1.789,0,2,.006,2.707.039a3.71,3.71,0,0,1,1.244.231,2.22,2.22,0,0,1,1.271,1.272,3.7,3.7,0,0,1,.231,1.244c.032.706.039.918.039,2.707s-.007,2-.039,2.707a3.706,3.706,0,0,1-.231,1.244,2.222,2.222,0,0,1-1.271,1.271,3.7,3.7,0,0,1-1.244.231c-.706.032-.918.039-2.707.039s-2-.007-2.707-.039a3.717,3.717,0,0,1-1.244-.231,2.22,2.22,0,0,1-1.272-1.271,3.7,3.7,0,0,1-.231-1.244c-.032-.706-.039-.918-.039-2.708s.006-2,.039-2.707a3.709,3.709,0,0,1,.231-1.244,2.22,2.22,0,0,1,1.272-1.272,3.7,3.7,0,0,1,1.244-.231c.618-.028.858-.036,2.106-.038Zm4.178,1.112a.8.8,0,1,0,.8.8.8.8,0,0,0-.8-.8Zm-3.577.939a3.44,3.44,0,1,0,3.44,3.441,3.441,3.441,0,0,0-3.44-3.441Zm0,1.207A2.233,2.233,0,1,1,22.467,24.7,2.233,2.233,0,0,1,24.7,22.467Z" transform="translate(-15.627 -15.627)" fill="#fff"/>
</svg>
