<svg xmlns="http://www.w3.org/2000/svg" width="13.047" height="13.459" viewBox="0 0 13.047 13.459">
  <path id="svgexport-10_3_" data-name="svgexport-10 (3)" d="M2.864,4.728A1.864,1.864,0,0,0,4.691,3.235l.037,0h8.947a.373.373,0,0,0,0-.746H4.69A1.864,1.864,0,1,0,2.864,4.728Zm0-.746A1.119,1.119,0,1,0,1.745,2.864,1.119,1.119,0,0,0,2.864,3.982Zm0,10.477a1.864,1.864,0,0,0,1.827-1.493l.037,0h8.947a.373.373,0,0,0,0-.746H4.69a1.864,1.864,0,1,0-1.827,2.235Zm0-.746a1.119,1.119,0,1,0-1.119-1.118A1.119,1.119,0,0,0,2.864,13.713ZM13.932,7.729a1.864,1.864,0,0,1-3.691.371h-8.5a.373.373,0,0,1,0-.746h8.5a1.865,1.865,0,0,1,3.691.371Zm-.746,0A1.119,1.119,0,1,1,12.068,6.61a1.119,1.119,0,0,1,1.118,1.119Z" transform="translate(-1 -1)" fill-rule="evenodd"/>
</svg>
