<svg id="Group_73638" data-name="Group 73638" xmlns="http://www.w3.org/2000/svg" xmlns:xlink="http://www.w3.org/1999/xlink" width="17.651" height="17.668" viewBox="0 0 17.651 17.668">
  <defs>
    <clipPath id="clip-path">
      <rect id="Rectangle_26265" data-name="Rectangle 26265" width="17.651" height="17.668" fill="none"/>
    </clipPath>
  </defs>
  <g id="Group_73637" data-name="Group 73637" clip-path="url(#clip-path)">
    <path id="Path_51465" data-name="Path 51465" d="M10.094,17.591l-.354.032c-.08-.007-.164-.036-.234.033l-.126.012-1.468-.045-.707-.088a4.959,4.959,0,0,0-.823-.181c-.416-.165-.834-.324-1.246-.5-.223-.094-.436-.214-.653-.322A10.947,10.947,0,0,1,2.49,15l-.064-.062A14.005,14.005,0,0,1,1.019,13,12.758,12.758,0,0,1,.3,11.165L.079,10.1Q.061,9.923.044,9.741L.022,9.69,0,9.332,0,8.274l.022-.293L.044,7.93l.085-.657.219-.946a12.062,12.062,0,0,1,.812-1.915,2.369,2.369,0,0,0,.328-.5,2.62,2.62,0,0,0,.367-.526,5.236,5.236,0,0,0,.57-.657.913.913,0,0,0,.3-.3l.657-.568a2.9,2.9,0,0,0,.525-.37,2.393,2.393,0,0,0,.5-.329A13.962,13.962,0,0,1,6.333.336l.874-.2L7.922.045,7.973.023,8.265,0,9.322,0l.358.02.051.022.364.035L11.154.3a12.565,12.565,0,0,1,1.835.719,13.845,13.845,0,0,1,1.94,1.407l.061.066a10.926,10.926,0,0,1,1.528,2l.039.081s0,.019,0,.019l.021.006a.025.025,0,0,0,.02.022l.037.049c.283.554.469,1.149.7,1.723l.179.822.09.709q.023.705.045,1.411l-.014.125c-.073.091-.037.194-.031.293l-.032.355-.22,1.061-.191.594a.082.082,0,0,0-.033.105l-.026.076-.022.041-.03.13a.344.344,0,0,0-.118.236l-.3.655a12.37,12.37,0,0,1-1.522,2.057l-.067.068a11.988,11.988,0,0,1-1.13.921c-.308.2-.616.4-.925.6l-.655.3a.343.343,0,0,0-.236.119l-.13.03-.041.023-.076.026a.082.082,0,0,0-.105.033l-.593.191-1.06.22M13.689,4.858a6.65,6.65,0,0,0-.925.345.6.6,0,0,1-.615-.1,2,2,0,0,0-2.334-.224A2.047,2.047,0,0,0,8.7,7.008c.018.2-.035.22-.192.206a5.574,5.574,0,0,1-1.431-.3,6.082,6.082,0,0,1-2.532-1.7c-.143-.162-.231-.14-.311.051a2.119,2.119,0,0,0-.031,1.549,2.414,2.414,0,0,0,.71.982.965.965,0,0,1-.617-.1c-.188-.093-.245-.051-.222.153A2.11,2.11,0,0,0,5.412,9.6c.074.034.178.019.214.147-.195,0-.381.013-.564,0-.248-.022-.231.074-.147.25A2.018,2.018,0,0,0,6.18,11.106c.169.053.342.092.565.151a4.712,4.712,0,0,1-2.989.883,5.953,5.953,0,0,0,2.108.816,5.833,5.833,0,0,0,4.209-.771,5.943,5.943,0,0,0,2.856-4.87,1.1,1.1,0,0,1,.459-.966,1.467,1.467,0,0,0,.542-.676,5.068,5.068,0,0,1-1.068.256,2.15,2.15,0,0,0,.825-1.074l.007-.021,0,.024" fill="#238cce"/>
    <path id="Path_51466" data-name="Path 51466" d="M73.486,78.13a2.15,2.15,0,0,1-.825,1.074,5.068,5.068,0,0,0,1.068-.256,1.467,1.467,0,0,1-.542.676,1.1,1.1,0,0,0-.459.966,5.943,5.943,0,0,1-2.856,4.87,5.833,5.833,0,0,1-4.209.771,5.953,5.953,0,0,1-2.108-.816,4.712,4.712,0,0,0,2.989-.883c-.222-.059-.4-.1-.565-.151a2.018,2.018,0,0,1-1.265-1.107c-.084-.177-.1-.272.147-.25.183.016.369,0,.564,0-.037-.128-.141-.113-.214-.147a2.11,2.11,0,0,1-1.334-1.757c-.023-.2.034-.246.222-.153a.965.965,0,0,0,.617.1,2.414,2.414,0,0,1-.71-.982,2.119,2.119,0,0,1,.031-1.549c.079-.191.167-.213.311-.051a6.082,6.082,0,0,0,2.532,1.7,5.577,5.577,0,0,0,1.431.3c.157.014.21-.009.192-.206a2.047,2.047,0,0,1,1.112-2.132,2,2,0,0,1,2.334.224.6.6,0,0,0,.615.1,6.651,6.651,0,0,1,.924-.345Z" transform="translate(-59.801 -73.276)" fill="#fcfdfe"/>
  </g>
</svg>
