<svg xmlns="http://www.w3.org/2000/svg" width="25.798" height="18.148" viewBox="0 0 25.798 18.148">
  <path id="youtube-color-icon" d="M24.535,49438.914a5.568,5.568,0,0,0-1.027-2.562,3.708,3.708,0,0,0-2.585-1.094c-3.607-.262-9.025-.262-9.025-.262h-.009s-5.415,0-9.025.262a3.722,3.722,0,0,0-2.585,1.094,5.534,5.534,0,0,0-1.022,2.563A39.07,39.07,0,0,0-1,49443.09v1.961a39.482,39.482,0,0,0,.257,4.176,5.58,5.58,0,0,0,1.022,2.555,4.4,4.4,0,0,0,2.848,1.109c2.065.2,8.773.254,8.773.254s5.423-.012,9.03-.27a3.669,3.669,0,0,0,2.585-1.094,5.553,5.553,0,0,0,1.027-2.559,39.29,39.29,0,0,0,.257-4.184v-1.949a39.981,39.981,0,0,0-.262-4.176h0Zm-15.309,8.508v-7.254l6.969,3.637Z" transform="translate(1 -49434.996)" fill="red" fill-rule="evenodd"/>
</svg>
